<svg width="720" height="1472" viewBox="0 0 720 1472" class="keymap" xmlns="http://www.w3.org/2000/svg" xmlns:xlink="http://www.w3.org/1999/xlink">
<style>/* inherit to force styles through use tags */
svg path {
    fill: inherit;
}

/* font and background color specifications */
svg.keymap {
    font-family: SFMono-Regular,Consolas,Liberation Mono,Menlo,monospace;
    font-size: 14px;
    font-kerning: normal;
    text-rendering: optimizeLegibility;
    fill: #24292e;
}

/* default key styling */
rect.key {
    fill: #f6f8fa;
}

rect.key, rect.combo {
    stroke: #c9cccf;
    stroke-width: 1;
}

/* default key side styling, only used is draw_key_sides is set */
rect.side {
    filter: brightness(90%);
}

/* color accent for combo boxes */
rect.combo, rect.combo-separate {
    fill: #cdf;
}

/* color accent for held keys */
rect.held, rect.combo.held {
    fill: #fdd;
}

/* color accent for ghost (optional) keys */
rect.ghost, rect.combo.ghost {
    stroke-dasharray: 4, 4;
    stroke-width: 2;
}

text {
    text-anchor: middle;
    dominant-baseline: middle;
}

/* styling for layer labels */
text.label {
    font-weight: bold;
    text-anchor: start;
    stroke: white;
    stroke-width: 4;
    paint-order: stroke;
}

/* styling for optional footer */
text.footer {
    text-anchor: end;
    dominant-baseline: auto;
    stroke: white;
    stroke-width: 4;
    paint-order: stroke;
}

/* styling for combo tap, and key non-tap label text */
text.combo, text.hold, text.shifted, text.left, text.right, text.tl, text.tr, text.bl, text.br {
    font-size: 11px;
}

text.hold, text.bl, text.br {
    text-anchor: middle;
    dominant-baseline: auto;
}

text.shifted, text.tl, text.tr {
    text-anchor: middle;
    dominant-baseline: hanging;
}

text.left, text.tl, text.bl {
    text-anchor: start;
}

text.right, text.tr, text.br {
    text-anchor: end;
}

text.layer-activator {
    text-decoration: underline;
}

/* styling for hold/shifted label text in combo box */
text.combo.hold, text.combo.shifted, text.combo.left, text.combo.right {
    font-size: 8px;
}

/* lighter symbol for transparent keys */
text.trans {
    fill: #7b7e81;
}

/* styling for combo dendrons */
path.combo {
    stroke-width: 1;
    stroke: gray;
    fill: none;
}

/* Start Tabler Icons Cleanup */
/* cannot use height/width with glyphs */
.icon-tabler > path {
    fill: inherit;
    stroke: inherit;
    stroke-width: 2;
}
/* hide tabler's default box */
.icon-tabler > path[stroke="none"][fill="none"] {
    visibility: hidden;
}
/* End Tabler Icons Cleanup */
</style>
<g transform="translate(30, 0)" class="layer-default">
<text x="0" y="28" class="label" id="default">default:</text>
<g transform="translate(0, 56)">
<g transform="translate(90, 30)" class="key keypos-0">
<rect rx="6" ry="6" x="-28" y="-28" width="56" height="56" class="key"/>
<text x="0" y="0" class="key tap">W</text>
</g>
<g transform="translate(150, 30)" class="key keypos-1">
<rect rx="6" ry="6" x="-28" y="-28" width="56" height="56" class="key"/>
<text x="0" y="0" class="key tap">E</text>
</g>
<g transform="translate(210, 30)" class="key keypos-2">
<rect rx="6" ry="6" x="-28" y="-28" width="56" height="56" class="key"/>
<text x="0" y="0" class="key tap">R</text>
</g>
<g transform="translate(450, 30)" class="key keypos-3">
<rect rx="6" ry="6" x="-28" y="-28" width="56" height="56" class="key"/>
<text x="0" y="0" class="key tap">U</text>
</g>
<g transform="translate(510, 30)" class="key keypos-4">
<rect rx="6" ry="6" x="-28" y="-28" width="56" height="56" class="key"/>
<text x="0" y="0" class="key tap">I</text>
</g>
<g transform="translate(570, 30)" class="key keypos-5">
<rect rx="6" ry="6" x="-28" y="-28" width="56" height="56" class="key"/>
<text x="0" y="0" class="key tap">O</text>
</g>
<g transform="translate(30, 135)" class="key keypos-6">
<rect rx="6" ry="6" x="-28" y="-28" width="56" height="56" class="key"/>
<text x="0" y="0" class="key tap">A</text>
</g>
<g transform="translate(90, 90)" class="key keypos-7">
<rect rx="6" ry="6" x="-28" y="-28" width="56" height="56" class="key"/>
<text x="0" y="0" class="key tap">S</text>
</g>
<g transform="translate(150, 90)" class="key keypos-8">
<rect rx="6" ry="6" x="-28" y="-28" width="56" height="56" class="key"/>
<text x="0" y="0" class="key tap">D</text>
</g>
<g transform="translate(210, 90)" class="key keypos-9">
<rect rx="6" ry="6" x="-28" y="-28" width="56" height="56" class="key"/>
<text x="0" y="0" class="key tap">F</text>
</g>
<g transform="translate(450, 90)" class="key keypos-10">
<rect rx="6" ry="6" x="-28" y="-28" width="56" height="56" class="key"/>
<text x="0" y="0" class="key tap">J</text>
</g>
<g transform="translate(510, 90)" class="key keypos-11">
<rect rx="6" ry="6" x="-28" y="-28" width="56" height="56" class="key"/>
<text x="0" y="0" class="key tap">K</text>
</g>
<g transform="translate(570, 90)" class="key keypos-12">
<rect rx="6" ry="6" x="-28" y="-28" width="56" height="56" class="key"/>
<text x="0" y="0" class="key tap">L</text>
</g>
<g transform="translate(630, 135)" class="key keypos-13">
<rect rx="6" ry="6" x="-28" y="-28" width="56" height="56" class="key"/>
<text x="0" y="0" class="key tap">ENTER</text>
<text x="0" y="26" class="key hold"><tspan style="font-size: 64%">RIGHT SHIFT</tspan></text>
</g>
<g transform="translate(180, 150)" class="key keypos-14">
<rect rx="6" ry="6" x="-28" y="-28" width="56" height="56" class="key"/>
<text x="0" y="0" class="key tap">C</text>
</g>
<g transform="translate(240, 150)" class="key keypos-15">
<rect rx="6" ry="6" x="-28" y="-28" width="56" height="56" class="key"/>
<text x="0" y="0" class="key tap">V</text>
</g>
<g transform="translate(420, 150)" class="key keypos-16">
<rect rx="6" ry="6" x="-28" y="-28" width="56" height="56" class="key"/>
<text x="0" y="0" class="key tap">N</text>
</g>
<g transform="translate(480, 150)" class="key keypos-17">
<rect rx="6" ry="6" x="-28" y="-28" width="56" height="56" class="key"/>
<text x="0" y="0" class="key tap">M</text>
</g>
<g class="combo combopos-0">
<rect rx="6" ry="6" x="106" y="17" width="28" height="26" class="combo"/>
<text x="120" y="30" class="combo tap">Q</text>
</g>
<g class="combo combopos-1">
<rect rx="6" ry="6" x="166" y="17" width="28" height="26" class="combo"/>
<text x="180" y="30" class="combo tap">T</text>
</g>
<g class="combo combopos-2">
<rect rx="6" ry="6" x="466" y="17" width="28" height="26" class="combo"/>
<text x="480" y="30" class="combo tap">Y</text>
</g>
<g class="combo combopos-3">
<rect rx="6" ry="6" x="526" y="17" width="28" height="26" class="combo"/>
<text x="540" y="30" class="combo tap">P</text>
</g>
<g class="combo combopos-4">
<rect rx="6" ry="6" x="166" y="77" width="28" height="26" class="combo"/>
<text x="180" y="90" class="combo tap">G</text>
</g>
<g class="combo combopos-5">
<rect rx="6" ry="6" x="466" y="77" width="28" height="26" class="combo"/>
<text x="480" y="90" class="combo tap">H</text>
</g>
<g class="combo combopos-6">
<rect rx="6" ry="6" x="196" y="137" width="28" height="26" class="combo"/>
<text x="210" y="150" class="combo tap">B</text>
</g>
<g class="combo combopos-7">
<rect rx="6" ry="6" x="151" y="107" width="28" height="26" class="combo"/>
<text x="165" y="120" class="combo tap">Z</text>
</g>
<g class="combo combopos-8">
<rect rx="6" ry="6" x="211" y="107" width="28" height="26" class="combo"/>
<text x="225" y="120" class="combo tap">X</text>
</g>
<g class="combo combopos-9">
<rect rx="6" ry="6" x="421" y="107" width="28" height="26" class="combo"/>
<text x="435" y="120" class="combo tap">,</text>
</g>
<g class="combo combopos-10">
<rect rx="6" ry="6" x="481" y="107" width="28" height="26" class="combo"/>
<text x="495" y="120" class="combo tap">.</text>
</g>
<g class="combo combopos-11">
<path d="M105,142 l-55,-6" class="combo"/>
<path d="M105,142 l55,6" class="combo"/>
<rect rx="6" ry="6" x="91" y="130" width="28" height="26" class="combo"/>
<text x="105" y="142" class="combo tap">
<tspan x="105" dy="-0.6em">Ctl+</tspan><tspan x="105" dy="1.2em">SPACE</tspan>
</text>
</g>
<g class="combo combopos-12">
<rect rx="6" ry="6" x="46" y="100" width="28" height="26" class="combo"/>
<text x="60" y="112" class="combo tap">LSHFT</text>
</g>
<g class="combo combopos-13">
<path d="M120,82 l73,-42" class="combo"/>
<path d="M120,82 l-73,42" class="combo"/>
<rect rx="6" ry="6" x="106" y="70" width="28" height="26" class="combo"/>
<text x="120" y="82" class="combo tap">F10</text>
</g>
<g class="combo combopos-14">
<path d="M225,90 l-10,-41" class="combo"/>
<path d="M225,90 l10,41" class="combo"/>
<rect rx="6" ry="6" x="211" y="77" width="28" height="26" class="combo"/>
<text x="225" y="90" class="combo tap">
<tspan x="225" dy="-0.6em">LEFT</tspan><tspan x="225" dy="1.2em">ALT</tspan>
</text>
</g>
<g class="combo combopos-15">
<path d="M150,90 l-40,0" class="combo"/>
<path d="M150,90 l40,0" class="combo"/>
<rect rx="6" ry="6" x="136" y="77" width="28" height="26" class="combo"/>
<a href="#nav">
<text x="150" y="90" class="combo tap layer-activator">nav</text>
</a><text x="150" y="101" class="combo hold">toggle</text>
</g>
<g class="combo combopos-16">
<path d="M500,110 l51,-15" class="combo"/>
<rect rx="6" ry="6" x="486" y="97" width="28" height="26" class="combo"/>
<a href="#bluetooth">
<text x="500" y="110" class="combo tap layer-activator"><tspan style="font-size: 78%">bluetooth</tspan></text>
</a><text x="500" y="121" class="combo hold">toggle</text>
</g>
</g>
</g>
<g transform="translate(30, 236)" class="layer-bluetooth">
<text x="0" y="28" class="label" id="bluetooth">bluetooth:</text>
<g transform="translate(0, 56)">
<g transform="translate(90, 30)" class="key trans keypos-0">
<rect rx="6" ry="6" x="-28" y="-28" width="56" height="56" class="key trans"/>
<text x="0" y="0" class="key trans tap">▽</text>
</g>
<g transform="translate(150, 30)" class="key trans keypos-1">
<rect rx="6" ry="6" x="-28" y="-28" width="56" height="56" class="key trans"/>
<text x="0" y="0" class="key trans tap">▽</text>
</g>
<g transform="translate(210, 30)" class="key trans keypos-2">
<rect rx="6" ry="6" x="-28" y="-28" width="56" height="56" class="key trans"/>
<text x="0" y="0" class="key trans tap">▽</text>
</g>
<g transform="translate(450, 30)" class="key trans keypos-3">
<rect rx="6" ry="6" x="-28" y="-28" width="56" height="56" class="key trans"/>
<text x="0" y="0" class="key trans tap">▽</text>
</g>
<g transform="translate(510, 30)" class="key trans keypos-4">
<rect rx="6" ry="6" x="-28" y="-28" width="56" height="56" class="key trans"/>
<text x="0" y="0" class="key trans tap">▽</text>
</g>
<g transform="translate(570, 30)" class="key trans keypos-5">
<rect rx="6" ry="6" x="-28" y="-28" width="56" height="56" class="key trans"/>
<text x="0" y="0" class="key trans tap">▽</text>
</g>
<g transform="translate(30, 135)" class="key keypos-6">
<rect rx="6" ry="6" x="-28" y="-28" width="56" height="56" class="key"/>
<text x="0" y="0" class="key tap">BT</text>
<text x="0" y="26" class="key hold">0</text>
</g>
<g transform="translate(90, 90)" class="key keypos-7">
<rect rx="6" ry="6" x="-28" y="-28" width="56" height="56" class="key"/>
<text x="0" y="0" class="key tap">BT</text>
<text x="0" y="26" class="key hold">1</text>
</g>
<g transform="translate(150, 90)" class="key keypos-8">
<rect rx="6" ry="6" x="-28" y="-28" width="56" height="56" class="key"/>
<text x="0" y="0" class="key tap">BT</text>
<text x="0" y="26" class="key hold">2</text>
</g>
<g transform="translate(210, 90)" class="key keypos-9">
<rect rx="6" ry="6" x="-28" y="-28" width="56" height="56" class="key"/>
<text x="0" y="0" class="key tap">BT</text>
<text x="0" y="26" class="key hold">3</text>
</g>
<g transform="translate(450, 90)" class="key keypos-10">
<rect rx="6" ry="6" x="-28" y="-28" width="56" height="56" class="key"/>
<text x="0" y="0" class="key tap">BT</text>
<text x="0" y="26" class="key hold">4</text>
</g>
<g transform="translate(510, 90)" class="key trans keypos-11">
<rect rx="6" ry="6" x="-28" y="-28" width="56" height="56" class="key trans"/>
<text x="0" y="0" class="key trans tap">▽</text>
</g>
<g transform="translate(570, 90)" class="key trans keypos-12">
<rect rx="6" ry="6" x="-28" y="-28" width="56" height="56" class="key trans"/>
<text x="0" y="0" class="key trans tap">▽</text>
</g>
<g transform="translate(630, 135)" class="key trans keypos-13">
<rect rx="6" ry="6" x="-28" y="-28" width="56" height="56" class="key trans"/>
<text x="0" y="0" class="key trans tap">▽</text>
</g>
<g transform="translate(180, 150)" class="key trans keypos-14">
<rect rx="6" ry="6" x="-28" y="-28" width="56" height="56" class="key trans"/>
<text x="0" y="0" class="key trans tap">▽</text>
</g>
<g transform="translate(240, 150)" class="key trans keypos-15">
<rect rx="6" ry="6" x="-28" y="-28" width="56" height="56" class="key trans"/>
<text x="0" y="0" class="key trans tap">▽</text>
</g>
<g transform="translate(420, 150)" class="key trans keypos-16">
<rect rx="6" ry="6" x="-28" y="-28" width="56" height="56" class="key trans"/>
<text x="0" y="0" class="key trans tap">▽</text>
</g>
<g transform="translate(480, 150)" class="key trans keypos-17">
<rect rx="6" ry="6" x="-28" y="-28" width="56" height="56" class="key trans"/>
<text x="0" y="0" class="key trans tap">▽</text>
</g>
<g class="combo combopos-0">
<path d="M500,110 l51,-15" class="combo"/>
<rect rx="6" ry="6" x="486" y="97" width="28" height="26" class="combo"/>
<a href="#default">
<text x="500" y="110" class="combo tap layer-activator">default</text>
</a><text x="500" y="121" class="combo hold">toggle</text>
</g>
</g>
</g>
<g transform="translate(30, 472)" class="layer-nav">
<text x="0" y="28" class="label" id="nav">nav:</text>
<g transform="translate(0, 56)">
<g transform="translate(90, 30)" class="key keypos-0">
<rect rx="6" ry="6" x="-28" y="-28" width="56" height="56" class="key"/>
<text x="0" y="0" class="key tap">ESCAPE</text>
</g>
<g transform="translate(150, 30)" class="key keypos-1">
<rect rx="6" ry="6" x="-28" y="-28" width="56" height="56" class="key"/>
<text x="0" y="0" class="key tap">
<tspan x="0" dy="-0.6em">UP</tspan><tspan x="0" dy="1.2em">ARROW</tspan>
</text>
</g>
<g transform="translate(210, 30)" class="key keypos-2">
<rect rx="6" ry="6" x="-28" y="-28" width="56" height="56" class="key"/>
<text x="0" y="0" class="key tap"><tspan style="font-size: 78%">BACKSPACE</tspan></text>
</g>
<g transform="translate(450, 30)" class="key keypos-3">
<rect rx="6" ry="6" x="-28" y="-28" width="56" height="56" class="key"/>
<text x="0" y="0" class="key tap">F10</text>
</g>
<g transform="translate(510, 30)" class="key keypos-4">
<rect rx="6" ry="6" x="-28" y="-28" width="56" height="56" class="key"/>
<text x="0" y="0" class="key tap">F11</text>
</g>
<g transform="translate(570, 30)" class="key keypos-5">
<rect rx="6" ry="6" x="-28" y="-28" width="56" height="56" class="key"/>
<text x="0" y="0" class="key tap">F12</text>
</g>
<g transform="translate(30, 135)" class="key keypos-6">
<rect rx="6" ry="6" x="-28" y="-28" width="56" height="56" class="key"/>
<text x="0" y="0" class="key tap">
<tspan x="0" dy="-0.6em">LEFT</tspan><tspan x="0" dy="1.2em">CONTROL</tspan>
</text>
</g>
<g transform="translate(90, 90)" class="key keypos-7">
<rect rx="6" ry="6" x="-28" y="-28" width="56" height="56" class="key"/>
<text x="0" y="0" class="key tap">
<tspan x="0" dy="-0.6em">LEFT</tspan><tspan x="0" dy="1.2em">ARROW</tspan>
</text>
</g>
<g transform="translate(150, 90)" class="key keypos-8">
<rect rx="6" ry="6" x="-28" y="-28" width="56" height="56" class="key"/>
<text x="0" y="0" class="key tap">
<tspan x="0" dy="-0.6em">DOWN</tspan><tspan x="0" dy="1.2em">ARROW</tspan>
</text>
</g>
<g transform="translate(210, 90)" class="key keypos-9">
<rect rx="6" ry="6" x="-28" y="-28" width="56" height="56" class="key"/>
<text x="0" y="0" class="key tap">
<tspan x="0" dy="-0.6em">RIGHT</tspan><tspan x="0" dy="1.2em">ARROW</tspan>
</text>
</g>
<g transform="translate(450, 90)" class="key keypos-10">
<rect rx="6" ry="6" x="-28" y="-28" width="56" height="56" class="key"/>
<text x="0" y="0" class="key tap">,</text>
</g>
<g transform="translate(510, 90)" class="key keypos-11">
<rect rx="6" ry="6" x="-28" y="-28" width="56" height="56" class="key"/>
<text x="0" y="0" class="key tap">.</text>
</g>
<g transform="translate(570, 90)" class="key keypos-12">
<rect rx="6" ry="6" x="-28" y="-28" width="56" height="56" class="key"/>
<text x="0" y="0" class="key tap">/</text>
</g>
<g transform="translate(630, 135)" class="key keypos-13">
<rect rx="6" ry="6" x="-28" y="-28" width="56" height="56" class="key"/>
<text x="0" y="0" class="key tap">
<tspan x="0" dy="-0.6em">Ctl+</tspan><tspan x="0" dy="1.2em">SPACE</tspan>
</text>
</g>
<g transform="translate(180, 150)" class="key keypos-14">
<rect rx="6" ry="6" x="-28" y="-28" width="56" height="56" class="key"/>
<text x="0" y="0" class="key tap">SPACE</text>
<a href="#symbol">
<text x="0" y="26" class="key hold layer-activator">symbol</text>
</a></g>
<g transform="translate(240, 150)" class="key keypos-15">
<rect rx="6" ry="6" x="-28" y="-28" width="56" height="56" class="key"/>
<text x="0" y="0" class="key tap">ENTER</text>
<a href="#digit">
<text x="0" y="26" class="key hold layer-activator">digit</text>
</a></g>
<g transform="translate(420, 150)" class="key keypos-16">
<rect rx="6" ry="6" x="-28" y="-28" width="56" height="56" class="key"/>
<text x="0" y="0" class="key tap">
<tspan x="0" dy="-0.6em">LEFT</tspan><tspan x="0" dy="1.2em">GUI</tspan>
</text>
</g>
<g transform="translate(480, 150)" class="key keypos-17">
<rect rx="6" ry="6" x="-28" y="-28" width="56" height="56" class="key"/>
<a href="#function">
<text x="0" y="0" class="key tap layer-activator"><tspan style="font-size: 88%">function</tspan></text>
</a></g>
<g class="combo combopos-0">
<path d="M120,82 l73,-42" class="combo"/>
<path d="M120,82 l-73,42" class="combo"/>
<rect rx="6" ry="6" x="106" y="70" width="28" height="26" class="combo"/>
<text x="120" y="82" class="combo tap">F10</text>
</g>
<g class="combo combopos-1">
<path d="M225,90 l-10,-41" class="combo"/>
<path d="M225,90 l10,41" class="combo"/>
<rect rx="6" ry="6" x="211" y="77" width="28" height="26" class="combo"/>
<text x="225" y="90" class="combo tap">
<tspan x="225" dy="-0.6em">LEFT</tspan><tspan x="225" dy="1.2em">ALT</tspan>
</text>
</g>
<g class="combo combopos-2">
<path d="M150,30 l-40,0" class="combo"/>
<path d="M150,30 l40,0" class="combo"/>
<rect rx="6" ry="6" x="136" y="17" width="28" height="26" class="combo"/>
<a href="#default">
<text x="150" y="30" class="combo tap layer-activator">default</text>
</a><text x="150" y="41" class="combo hold">toggle</text>
</g>
<g class="combo combopos-3">
<path d="M60,82 l20,-35" class="combo"/>
<path d="M60,82 l-20,35" class="combo"/>
<rect rx="6" ry="6" x="46" y="70" width="28" height="26" class="combo"/>
<text x="60" y="82" class="combo tap">TAB</text>
</g>
<g class="combo combopos-4">
<path d="M105,142 l-55,-6" class="combo"/>
<path d="M105,142 l55,6" class="combo"/>
<rect rx="6" ry="6" x="91" y="130" width="28" height="26" class="combo"/>
<text x="105" y="142" class="combo tap">Ctl+C</text>
</g>
<g class="combo combopos-5">
<path d="M135,142 l-85,-6" class="combo"/>
<path d="M135,142 l85,6" class="combo"/>
<rect rx="6" ry="6" x="121" y="130" width="28" height="26" class="combo"/>
<text x="135" y="142" class="combo tap">Ctl+V</text>
</g>
<g class="combo combopos-6">
<path d="M120,125 l-70,8" class="combo"/>
<path d="M120,125 l42,17" class="combo"/>
<rect rx="6" ry="6" x="106" y="112" width="28" height="26" class="combo"/>
<text x="120" y="125" class="combo tap">Ctl+Z</text>
</g>
<g class="combo combopos-7">
<path d="M160,125 l-110,8" class="combo"/>
<path d="M160,125 l34,-24" class="combo"/>
<path d="M160,125 l61,19" class="combo"/>
<rect rx="6" ry="6" x="146" y="112" width="28" height="26" class="combo"/>
<text x="160" y="125" class="combo tap">Ctl+X</text>
</g>
</g>
</g>
<g transform="translate(30, 708)" class="layer-digit">
<text x="0" y="28" class="label" id="digit">digit:</text>
<g transform="translate(0, 56)">
<g transform="translate(90, 30)" class="key keypos-0">
<rect rx="6" ry="6" x="-28" y="-28" width="56" height="56" class="key"/>
<text x="0" y="0" class="key tap">1</text>
</g>
<g transform="translate(150, 30)" class="key keypos-1">
<rect rx="6" ry="6" x="-28" y="-28" width="56" height="56" class="key"/>
<text x="0" y="0" class="key tap">2</text>
</g>
<g transform="translate(210, 30)" class="key keypos-2">
<rect rx="6" ry="6" x="-28" y="-28" width="56" height="56" class="key"/>
<text x="0" y="0" class="key tap">3</text>
</g>
<g transform="translate(450, 30)" class="key keypos-3">
<rect rx="6" ry="6" x="-28" y="-28" width="56" height="56" class="key"/>
<text x="0" y="0" class="key tap">1</text>
</g>
<g transform="translate(510, 30)" class="key keypos-4">
<rect rx="6" ry="6" x="-28" y="-28" width="56" height="56" class="key"/>
<text x="0" y="0" class="key tap">2</text>
</g>
<g transform="translate(570, 30)" class="key keypos-5">
<rect rx="6" ry="6" x="-28" y="-28" width="56" height="56" class="key"/>
<text x="0" y="0" class="key tap">3</text>
</g>
<g transform="translate(30, 135)" class="key keypos-6">
<rect rx="6" ry="6" x="-28" y="-28" width="56" height="56" class="key"/>
<text x="0" y="0" class="key tap">@</text>
</g>
<g transform="translate(90, 90)" class="key keypos-7">
<rect rx="6" ry="6" x="-28" y="-28" width="56" height="56" class="key"/>
<text x="0" y="0" class="key tap">4</text>
</g>
<g transform="translate(150, 90)" class="key keypos-8">
<rect rx="6" ry="6" x="-28" y="-28" width="56" height="56" class="key"/>
<text x="0" y="0" class="key tap">5</text>
</g>
<g transform="translate(210, 90)" class="key keypos-9">
<rect rx="6" ry="6" x="-28" y="-28" width="56" height="56" class="key"/>
<text x="0" y="0" class="key tap">6</text>
</g>
<g transform="translate(450, 90)" class="key keypos-10">
<rect rx="6" ry="6" x="-28" y="-28" width="56" height="56" class="key"/>
<text x="0" y="0" class="key tap">4</text>
</g>
<g transform="translate(510, 90)" class="key keypos-11">
<rect rx="6" ry="6" x="-28" y="-28" width="56" height="56" class="key"/>
<text x="0" y="0" class="key tap">5</text>
</g>
<g transform="translate(570, 90)" class="key keypos-12">
<rect rx="6" ry="6" x="-28" y="-28" width="56" height="56" class="key"/>
<text x="0" y="0" class="key tap">6</text>
</g>
<g transform="translate(630, 135)" class="key keypos-13">
<rect rx="6" ry="6" x="-28" y="-28" width="56" height="56" class="key"/>
<text x="0" y="0" class="key tap">9</text>
</g>
<g transform="translate(180, 150)" class="key trans keypos-14">
<rect rx="6" ry="6" x="-28" y="-28" width="56" height="56" class="key trans"/>
<text x="0" y="0" class="key trans tap">▽</text>
</g>
<g transform="translate(240, 150)" class="key held keypos-15">
<rect rx="6" ry="6" x="-28" y="-28" width="56" height="56" class="key held"/>
</g>
<g transform="translate(420, 150)" class="key keypos-16">
<rect rx="6" ry="6" x="-28" y="-28" width="56" height="56" class="key"/>
<text x="0" y="0" class="key tap">7</text>
</g>
<g transform="translate(480, 150)" class="key keypos-17">
<rect rx="6" ry="6" x="-28" y="-28" width="56" height="56" class="key"/>
<text x="0" y="0" class="key tap">8</text>
</g>
</g>
</g>
<g transform="translate(30, 944)" class="layer-symbol">
<text x="0" y="28" class="label" id="symbol">symbol:</text>
<g transform="translate(0, 56)">
<g transform="translate(90, 30)" class="key keypos-0">
<rect rx="6" ry="6" x="-28" y="-28" width="56" height="56" class="key"/>
<text x="0" y="0" class="key tap">7</text>
</g>
<g transform="translate(150, 30)" class="key keypos-1">
<rect rx="6" ry="6" x="-28" y="-28" width="56" height="56" class="key"/>
<text x="0" y="0" class="key tap">8</text>
</g>
<g transform="translate(210, 30)" class="key keypos-2">
<rect rx="6" ry="6" x="-28" y="-28" width="56" height="56" class="key"/>
<text x="0" y="0" class="key tap">9</text>
</g>
<g transform="translate(450, 30)" class="key keypos-3">
<rect rx="6" ry="6" x="-28" y="-28" width="56" height="56" class="key"/>
<text x="0" y="0" class="key tap">0</text>
</g>
<g transform="translate(510, 30)" class="key keypos-4">
<rect rx="6" ry="6" x="-28" y="-28" width="56" height="56" class="key"/>
<text x="0" y="0" class="key tap">-</text>
</g>
<g transform="translate(570, 30)" class="key keypos-5">
<rect rx="6" ry="6" x="-28" y="-28" width="56" height="56" class="key"/>
<text x="0" y="0" class="key tap">+</text>
</g>
<g transform="translate(30, 135)" class="key keypos-6">
<rect rx="6" ry="6" x="-28" y="-28" width="56" height="56" class="key"/>
<text x="0" y="0" class="key tap">#</text>
</g>
<g transform="translate(90, 90)" class="key keypos-7">
<rect rx="6" ry="6" x="-28" y="-28" width="56" height="56" class="key"/>
<text x="0" y="0" class="key tap">0</text>
</g>
<g transform="translate(150, 90)" class="key keypos-8">
<rect rx="6" ry="6" x="-28" y="-28" width="56" height="56" class="key"/>
<text x="0" y="0" class="key tap">,</text>
</g>
<g transform="translate(210, 90)" class="key keypos-9">
<rect rx="6" ry="6" x="-28" y="-28" width="56" height="56" class="key"/>
<text x="0" y="0" class="key tap">.</text>
</g>
<g transform="translate(450, 90)" class="key keypos-10">
<rect rx="6" ry="6" x="-28" y="-28" width="56" height="56" class="key"/>
<text x="0" y="0" class="key tap">HOME</text>
</g>
<g transform="translate(510, 90)" class="key keypos-11">
<rect rx="6" ry="6" x="-28" y="-28" width="56" height="56" class="key"/>
<text x="0" y="0" class="key tap">END</text>
</g>
<g transform="translate(570, 90)" class="key keypos-12">
<rect rx="6" ry="6" x="-28" y="-28" width="56" height="56" class="key"/>
<text x="0" y="0" class="key tap">
<tspan x="0" dy="-0.6em">PAGE</tspan><tspan x="0" dy="1.2em">UP</tspan>
</text>
</g>
<g transform="translate(630, 135)" class="key keypos-13">
<rect rx="6" ry="6" x="-28" y="-28" width="56" height="56" class="key"/>
<text x="0" y="0" class="key tap">
<tspan x="0" dy="-0.6em">PAGE</tspan><tspan x="0" dy="1.2em">DOWN</tspan>
</text>
</g>
<g transform="translate(180, 150)" class="key held keypos-14">
<rect rx="6" ry="6" x="-28" y="-28" width="56" height="56" class="key held"/>
</g>
<g transform="translate(240, 150)" class="key trans keypos-15">
<rect rx="6" ry="6" x="-28" y="-28" width="56" height="56" class="key trans"/>
<text x="0" y="0" class="key trans tap">▽</text>
</g>
<g transform="translate(420, 150)" class="key keypos-16">
<rect rx="6" ry="6" x="-28" y="-28" width="56" height="56" class="key"/>
<text x="0" y="0" class="key tap">~</text>
</g>
<g transform="translate(480, 150)" class="key keypos-17">
<rect rx="6" ry="6" x="-28" y="-28" width="56" height="56" class="key"/>
<text x="0" y="0" class="key tap"><tspan style="font-size: 64%">PRINTSCREEN</tspan></text>
</g>
</g>
</g>
<g transform="translate(30, 1180)" class="layer-function">
<text x="0" y="28" class="label" id="function">function:</text>
<g transform="translate(0, 56)">
<g transform="translate(90, 30)" class="key keypos-0">
<rect rx="6" ry="6" x="-28" y="-28" width="56" height="56" class="key"/>
<text x="0" y="0" class="key tap">F1</text>
</g>
<g transform="translate(150, 30)" class="key keypos-1">
<rect rx="6" ry="6" x="-28" y="-28" width="56" height="56" class="key"/>
<text x="0" y="0" class="key tap">F2</text>
</g>
<g transform="translate(210, 30)" class="key keypos-2">
<rect rx="6" ry="6" x="-28" y="-28" width="56" height="56" class="key"/>
<text x="0" y="0" class="key tap">F3</text>
</g>
<g transform="translate(450, 30)" class="key keypos-3">
<rect rx="6" ry="6" x="-28" y="-28" width="56" height="56" class="key"/>
<text x="0" y="0" class="key tap">F10</text>
</g>
<g transform="translate(510, 30)" class="key keypos-4">
<rect rx="6" ry="6" x="-28" y="-28" width="56" height="56" class="key"/>
<text x="0" y="0" class="key tap">F11</text>
</g>
<g transform="translate(570, 30)" class="key keypos-5">
<rect rx="6" ry="6" x="-28" y="-28" width="56" height="56" class="key"/>
<text x="0" y="0" class="key tap">F12</text>
</g>
<g transform="translate(30, 135)" class="key keypos-6">
<rect rx="6" ry="6" x="-28" y="-28" width="56" height="56" class="key"/>
<text x="0" y="0" class="key tap">F4</text>
</g>
<g transform="translate(90, 90)" class="key keypos-7">
<rect rx="6" ry="6" x="-28" y="-28" width="56" height="56" class="key"/>
<text x="0" y="0" class="key tap">F5</text>
</g>
<g transform="translate(150, 90)" class="key keypos-8">
<rect rx="6" ry="6" x="-28" y="-28" width="56" height="56" class="key"/>
<text x="0" y="0" class="key tap">F6</text>
</g>
<g transform="translate(210, 90)" class="key keypos-9">
<rect rx="6" ry="6" x="-28" y="-28" width="56" height="56" class="key"/>
<text x="0" y="0" class="key tap">F7</text>
</g>
<g transform="translate(450, 90)" class="key trans keypos-10">
<rect rx="6" ry="6" x="-28" y="-28" width="56" height="56" class="key trans"/>
<text x="0" y="0" class="key trans tap">▽</text>
</g>
<g transform="translate(510, 90)" class="key trans keypos-11">
<rect rx="6" ry="6" x="-28" y="-28" width="56" height="56" class="key trans"/>
<text x="0" y="0" class="key trans tap">▽</text>
</g>
<g transform="translate(570, 90)" class="key trans keypos-12">
<rect rx="6" ry="6" x="-28" y="-28" width="56" height="56" class="key trans"/>
<text x="0" y="0" class="key trans tap">▽</text>
</g>
<g transform="translate(630, 135)" class="key trans keypos-13">
<rect rx="6" ry="6" x="-28" y="-28" width="56" height="56" class="key trans"/>
<text x="0" y="0" class="key trans tap">▽</text>
</g>
<g transform="translate(180, 150)" class="key keypos-14">
<rect rx="6" ry="6" x="-28" y="-28" width="56" height="56" class="key"/>
<text x="0" y="0" class="key tap">F8</text>
</g>
<g transform="translate(240, 150)" class="key keypos-15">
<rect rx="6" ry="6" x="-28" y="-28" width="56" height="56" class="key"/>
<text x="0" y="0" class="key tap">F9</text>
</g>
<g transform="translate(420, 150)" class="key trans keypos-16">
<rect rx="6" ry="6" x="-28" y="-28" width="56" height="56" class="key trans"/>
<text x="0" y="0" class="key trans tap">▽</text>
</g>
<g transform="translate(480, 150)" class="key held keypos-17">
<rect rx="6" ry="6" x="-28" y="-28" width="56" height="56" class="key held"/>
</g>
</g>
</g>
<text x="690.0" y="1444.0" class="footer">tiny18 (auto-generated)</text></svg>
